# xmcd
#
# Track frame offsets:
#	150
#	12810
#	23422
#	36122
#	50047
#	63485
#	78297
#	89622
#	100122
#	112772
#	124710
#	136322
#	146710
#	159210
#	170810
#	181860
#	195147
#	212385
#	226122
#
# Disc length: 3193 seconds
#
# Revision: 2
# Processed by: cddbd v1.5.2PL0 Copyright (c) Steve Scherf et al.
# Submitted via: EZCDAudioConverter 6.0.4.1
#
DISCID=e60c7713
DTITLE=Roy Orbison - The Legendary Roy Orbison
DYEAR=1990
DGENRE=Country
TTITLE0=Pretty Paper
TTITLE1=Beautiful Dreamer
TTITLE2=It's Over
TTITLE3=Indian Wedding
TTITLE4=Oh, Pretty Woman
TTITLE5=Yo Te, Amo Maria
TTITLE6=Goodnight
TTITLE7=Only With You
TTITLE8=Say You're My Girl
TTITLE9=Sleepy Hollow
TTITLE10=Let the Good Times Roll
TTITLE11=Lana
TTITLE12=Summersong
TTITLE13=Belinda
TTITLE14=No Chain at All
TTITLE15=(I'm a) Southern Man
TTITLE16=Born to Love Me
TTITLE17=Drifting Away
TTITLE18=Under Suspicion
EXTD=
EXTT0=
EXTT1=
EXTT2=
EXTT3=
EXTT4=
EXTT5=
EXTT6=
EXTT7=
EXTT8=
EXTT9=
EXTT10=
EXTT11=
EXTT12=
EXTT13=
EXTT14=
EXTT15=
EXTT16=
EXTT17=
EXTT18=
PLAYORDER=
